name rise34.3697peak60.0498fall86.3158.mot
datacolumns 19
datarows 23
range 2.01332600000000 2.04999500000000
endheader
time	ground_force1_vx	ground_force1_vy	ground_force1_vz	ground_force1_px	ground_force1_py	ground_force1_pz	ground_force2_vx	ground_force2_vy	ground_force2_vz	ground_force2_px	ground_force2_py	ground_force2_pz	ground_torque1_x	ground_torque1_y	ground_torque1_z	ground_torque2_x	ground_torque2_y	ground_torque2_z	
2.01332600000000	-11.95547600000000	40.64198700000000	-6.85613800000000	0.38658700000000	0.00000000000000	0.10390300000000	-55.57923200000000	813.34866499999998	-46.92820200000000	0.20198300000000	0.00000000000000	-0.06276200000000	0.00000000000000	-4.44162000000000	0.00000000000000	0.00000000000000	-24.92374000000000	0.00000000000000	
2.01499400000000	-13.14414800000000	47.58792400000000	-7.74184500000000	0.38939000000000	0.00000000000000	0.10443300000000	-56.48183600000000	811.20674099999997	-46.58486300000000	0.20061100000000	0.00000000000000	-0.06267500000000	0.00000000000000	-5.08904000000000	0.00000000000000	0.00000000000000	-24.79640600000000	0.00000000000000	
2.01665600000000	-14.11752800000000	54.61116700000000	-8.55620000000000	0.39210200000000	0.00000000000000	0.10491600000000	-57.39204200000000	808.90306899999996	-46.22715900000000	0.19923700000000	0.00000000000000	-0.06258800000000	0.00000000000000	-5.70973800000000	0.00000000000000	0.00000000000000	-24.66702000000000	0.00000000000000	
2.01832500000000	-14.84404200000000	61.62130500000000	-9.28024600000000	0.39473300000000	0.00000000000000	0.10536000000000	-58.30904100000000	806.43363199999999	-45.85531500000000	0.19786000000000	0.00000000000000	-0.06250000000000	0.00000000000000	-6.29114500000000	0.00000000000000	0.00000000000000	-24.53567300000000	0.00000000000000	
2.01999100000000	-15.30520300000000	68.55064400000001	-9.90080600000000	0.39729200000000	0.00000000000000	0.10577000000000	-59.23191800000000	803.79442100000006	-45.46955100000000	0.19648200000000	0.00000000000000	-0.06241000000000	0.00000000000000	-6.82385800000000	0.00000000000000	0.00000000000000	-24.40244000000000	0.00000000000000	
2.02166100000000	-15.49540700000000	75.35625899999999	-10.41062600000000	0.39978500000000	0.00000000000000	0.10615200000000	-60.15965100000000	800.98145499999998	-45.07008800000000	0.19510300000000	0.00000000000000	-0.06232000000000	0.00000000000000	-7.30185100000000	0.00000000000000	0.00000000000000	-24.26737400000000	0.00000000000000	
2.02332100000000	-15.42072100000000	82.01966200000000	-10.80801200000000	0.40222000000000	0.00000000000000	0.10650900000000	-61.09110500000000	797.99078699999995	-44.65714300000000	0.19372300000000	0.00000000000000	-0.06222800000000	0.00000000000000	-7.72236800000000	0.00000000000000	0.00000000000000	-24.13051200000000	0.00000000000000	
2.02499600000000	-15.09691000000000	88.54451600000000	-11.09608000000000	0.40460300000000	0.00000000000000	0.10684500000000	-62.02503900000000	794.81852400000002	-44.23092900000000	0.19234400000000	0.00000000000000	-0.06213600000000	0.00000000000000	-8.08557100000000	0.00000000000000	0.00000000000000	-23.99187200000000	0.00000000000000	
2.02665500000000	-14.54702000000000	94.95292000000001	-11.28174000000000	0.40693700000000	0.00000000000000	0.10716200000000	-62.96010100000000	791.46084099999996	-43.79165800000000	0.19096600000000	0.00000000000000	-0.06204200000000	0.00000000000000	-8.39401000000000	0.00000000000000	0.00000000000000	-23.85145000000000	0.00000000000000	
2.02832900000000	-13.79876600000000	101.28081500000000	-11.37455000000000	0.40922600000000	0.00000000000000	0.10746200000000	-63.89483000000000	787.91399699999999	-43.33954000000000	0.18958900000000	0.00000000000000	-0.06194800000000	0.00000000000000	-8.65198700000000	0.00000000000000	0.00000000000000	-23.70922600000000	0.00000000000000	
2.02999300000000	-12.88200000000000	107.57305400000000	-11.38555500000000	0.41147500000000	0.00000000000000	0.10774700000000	-64.82765900000000	784.17435200000000	-42.87478200000000	0.18821500000000	0.00000000000000	-0.06185200000000	0.00000000000000	-8.86488200000000	0.00000000000000	0.00000000000000	-23.56515800000000	0.00000000000000	
2.03165900000000	-11.82643500000000	113.87859200000000	-11.32621200000000	0.41368500000000	0.00000000000000	0.10801900000000	-65.75691700000000	780.23838200000000	-42.39758800000000	0.18684500000000	0.00000000000000	-0.06175600000000	0.00000000000000	-9.03852100000000	0.00000000000000	0.00000000000000	-23.41919000000000	0.00000000000000	
2.03332300000000	-10.65976600000000	120.24615300000001	-11.20746600000000	0.41586000000000	0.00000000000000	0.10828000000000	-66.68083100000000	776.10270100000002	-41.90816400000000	0.18547800000000	0.00000000000000	-0.06165800000000	0.00000000000000	-9.17859600000000	0.00000000000000	0.00000000000000	-23.27124200000000	0.00000000000000	
2.03499300000000	-9.40626900000000	126.72064399999999	-11.03903000000000	0.41800100000000	0.00000000000000	0.10853000000000	-67.59752700000000	771.76407800000004	-41.40671200000000	0.18411700000000	0.00000000000000	-0.06156000000000	0.00000000000000	-9.29021700000000	0.00000000000000	0.00000000000000	-23.12122100000000	0.00000000000000	
2.03666000000000	-8.08590200000000	133.34045100000000	-10.82888500000000	0.42011100000000	0.00000000000000	0.10877000000000	-68.50503800000000	767.21945500000004	-40.89343900000000	0.18276100000000	0.00000000000000	-0.06146000000000	0.00000000000000	-9.37756300000000	0.00000000000000	0.00000000000000	-22.96901400000000	0.00000000000000	
2.03832700000000	-6.71388400000000	140.13567399999999	-10.58300000000000	0.42218900000000	0.00000000000000	0.10900100000000	-69.40130499999999	762.46596899999997	-40.36855100000000	0.18141300000000	0.00000000000000	-0.06135900000000	0.00000000000000	-9.44368800000000	0.00000000000000	0.00000000000000	-22.81449500000000	0.00000000000000	
2.03999600000000	-5.30070900000000	147.12726000000001	-10.30526300000000	0.42423800000000	0.00000000000000	0.10922400000000	-70.28418400000000	757.50097200000005	-39.83225400000000	0.18007100000000	0.00000000000000	-0.06125700000000	0.00000000000000	-9.49042500000000	0.00000000000000	0.00000000000000	-22.65752000000000	0.00000000000000	
2.04165600000000	-3.85249900000000	154.32694699999999	-9.99757200000000	0.42625800000000	0.00000000000000	0.10944000000000	-71.15144900000000	752.32204700000000	-39.28476300000000	0.17873800000000	0.00000000000000	-0.06115400000000	0.00000000000000	-9.51842100000000	0.00000000000000	0.00000000000000	-22.49793100000000	0.00000000000000	
2.04332400000000	-2.37162900000000	161.73786400000000	-9.66006800000000	0.42825000000000	0.00000000000000	0.10964900000000	-72.00079900000000	746.92703800000004	-38.72629100000000	0.17741500000000	0.00000000000000	-0.06104900000000	0.00000000000000	-9.52723800000000	0.00000000000000	0.00000000000000	-22.33555800000000	0.00000000000000	
2.04498900000000	-0.85750300000000	169.35562400000001	-9.29146300000000	0.43021300000000	0.00000000000000	0.10985200000000	-72.82986600000000	741.31406100000004	-38.15706200000000	0.17610100000000	0.00000000000000	-0.06094300000000	0.00000000000000	-9.51553600000000	0.00000000000000	0.00000000000000	-22.17021700000000	0.00000000000000	
2.04666200000000	0.69258500000000	177.16974500000001	-8.88940800000000	0.43214900000000	0.00000000000000	0.11004800000000	-73.63621700000000	735.48152600000003	-37.57730400000000	0.17479900000000	0.00000000000000	-0.06083600000000	0.00000000000000	-9.48128500000000	0.00000000000000	0.00000000000000	-22.00171400000000	0.00000000000000	
2.04832400000000	2.28259000000000	185.16521800000001	-8.45088700000000	0.43405600000000	0.00000000000000	0.11023900000000	-74.41736600000000	729.42815800000005	-36.98725300000000	0.17350900000000	0.00000000000000	-0.06072700000000	0.00000000000000	-9.42199200000000	0.00000000000000	0.00000000000000	-21.82984300000000	0.00000000000000	
2.04999500000000	3.91693300000000	193.32409500000000	-7.97258600000000	0.43593500000000	0.00000000000000	0.11042500000000	-75.17077900000000	723.15301299999999	-36.38715400000000	0.17223200000000	0.00000000000000	-0.06061600000000	0.00000000000000	-9.33493700000000	0.00000000000000	0.00000000000000	-21.65439100000000	0.00000000000000	
